<svg version="1.1" xmlns="http://www.w3.org/2000/svg" viewBox="0 0 1036.020712495551 665.8345023830008" width="2072.041424991102" height="1331.6690047660015">
  <!-- svg-source:excalidraw -->
  
  <defs>
    <style class="style-fonts">
      @font-face {
        font-family: "Virgil";
        src: url("https://excalidraw.com/Virgil.woff2");
      }
      @font-face {
        font-family: "Cascadia";
        src: url("https://excalidraw.com/Cascadia.woff2");
      }
    </style>
  </defs>
  <rect x="0" y="0" width="1036.020712495551" height="665.8345023830008" fill="#ffffff"></rect><g stroke-linecap="round" transform="translate(94.63793904675452 164.2560816474691) rotate(0 269.8240880368966 85.14660342680432)"><path d="M32 0 M32 0 C187.55 1.56, 341.9 0.24, 507.65 0 M507.65 0 C530.98 0.77, 539.04 12.34, 539.65 32 M539.65 32 C541.23 61.02, 541.31 91.7, 539.65 138.29 M539.65 138.29 C539.67 158.09, 530.3 168.76, 507.65 170.29 M507.65 170.29 C400.93 169.07, 294.16 168.35, 32 170.29 M32 170.29 C8.89 169.02, -0.32 160.13, 0 138.29 M0 138.29 C-0.87 111.17, 1.9 87.3, 0 32 M0 32 C-0.24 10.76, 8.92 0.01, 32 0" stroke="#495057" stroke-width="1.5" fill="none" stroke-dasharray="8 9"></path></g><g stroke-linecap="round" transform="translate(726.8176738548977 162.15003572468424) rotate(0 145.97988867689702 82.7415812925328)"><path d="M32 0 M32 0 C92.49 0.05, 154.26 -3.17, 259.96 0 M259.96 0 C282.18 -0.55, 292.82 12.23, 291.96 32 M291.96 32 C293.91 57.23, 290.75 84.42, 291.96 133.48 M291.96 133.48 C292.47 156.39, 280.46 163.7, 259.96 165.48 M259.96 165.48 C172.06 166.11, 85.62 164.46, 32 165.48 M32 165.48 C9.93 166.99, -1.8 155.43, 0 133.48 M0 133.48 C0.25 112.45, 1.62 87.27, 0 32 M0 32 C-0.69 10.7, 10.45 -1.27, 32 0" stroke="#c92a2a" stroke-width="1.5" fill="none" stroke-dasharray="8 9"></path></g><g stroke-linecap="round" transform="translate(783.1232294104532 227.71600758821108) rotate(0 77 33.5)"><path d="M18.41 0.55 L143.55 2.31 L148.01 2.84 L155.57 14.44 L154.82 59.04 L146.42 63.44 L138.8 65.38 L10.38 65.94 L0.92 61.79 L1.14 55.08 L-1.05 13.67 L2.37 6.02 L9.52 3.02 L15.55 -0.37" stroke="none" stroke-width="0" fill="#fab00533"></path><path d="M16.75 0 M16.75 0 C61.29 2.34, 104.59 2.35, 137.25 0 M16.75 0 C53.24 -0.55, 90.51 0.75, 137.25 0 M137.25 0 C150.34 0.18, 152.06 6.31, 154 16.75 M137.25 0 C149.69 -1.43, 156.14 7.35, 154 16.75 M154 16.75 C153.05 24.3, 151.88 32.96, 154 50.25 M154 16.75 C155.14 26.56, 153.96 35.22, 154 50.25 M154 50.25 C155.37 63.24, 147.29 65.55, 137.25 67 M154 50.25 C152.95 61.67, 147.69 65.71, 137.25 67 M137.25 67 C107.78 66.91, 80.37 66.36, 16.75 67 M137.25 67 C97.81 67.29, 58.58 68.77, 16.75 67 M16.75 67 C7.26 65.15, -1.45 62.64, 0 50.25 M16.75 67 C6.3 67.55, 2.21 62.07, 0 50.25 M0 50.25 C-1.06 38.29, 0.25 26.99, 0 16.75 M0 50.25 C0.2 42.51, -0.72 36.37, 0 16.75 M0 16.75 C-0.92 4.47, 5.31 0.91, 16.75 0 M0 16.75 C-2.17 6.39, 4.52 -0.63, 16.75 0" stroke="#e67700" stroke-width="1" fill="none"></path></g><g transform="translate(803.5632852576211 249.21600758821108) rotate(0 56.55994415283203 12)"><text x="56.55994415283203" y="0" font-family="Virgil, Segoe UI Emoji" font-size="20px" fill="#e67700" text-anchor="middle" style="white-space: pre;" direction="ltr" dominant-baseline="text-before-edge">Linux kernel</text></g><g stroke-linecap="round" transform="translate(155.87215795079265 489.37428293116074) rotate(0 79.5 28.5)"><path d="M15.29 -1.72 L150.52 0.85 L156.91 2.98 L156.78 12.75 L156.91 47.95 L152.39 55.15 L146.61 56.57 L6.06 55.36 L3.65 53.73 L1.68 48.02 L-0.35 11.57 L3.94 6.97 L4.01 2.6 L13.07 1.34" stroke="none" stroke-width="0" fill="#82c91e33"></path><path d="M14.25 0 M14.25 0 C54.75 -0.85, 96.75 -1.42, 144.75 0 M14.25 0 C62.67 0.64, 112.41 -0.75, 144.75 0 M144.75 0 C152.66 0.36, 159.75 3.46, 159 14.25 M144.75 0 C155.12 -1.24, 157.36 4.17, 159 14.25 M159 14.25 C158.61 25.65, 160.56 35.67, 159 42.75 M159 14.25 C158.95 21.58, 159.42 28.64, 159 42.75 M159 42.75 C157.89 54.06, 154.22 56.47, 144.75 57 M159 42.75 C157.44 50.74, 155.61 56.48, 144.75 57 M144.75 57 C101.26 58, 62.64 56.56, 14.25 57 M144.75 57 C112.85 55.67, 81.89 55.81, 14.25 57 M14.25 57 C2.94 56.3, 0.83 50.49, 0 42.75 M14.25 57 C4.59 54.86, -0.48 50.8, 0 42.75 M0 42.75 C0.56 35.76, -1.62 29.07, 0 14.25 M0 42.75 C-0.52 32.95, -0.44 23.99, 0 14.25 M0 14.25 C1.08 4.49, 5.65 -0.67, 14.25 0 M0 14.25 C1.63 2.82, 5.69 -1.99, 14.25 0" stroke="#5c940d" stroke-width="1" fill="none"></path></g><g transform="translate(193.30221166173015 505.87428293116074) rotate(0 42.0699462890625 12)"><text x="42.0699462890625" y="0" font-family="Virgil, Segoe UI Emoji" font-size="20px" fill="#5c940d" text-anchor="middle" style="white-space: pre;" direction="ltr" dominant-baseline="text-before-edge">/sbin/init</text></g><g stroke-linecap="round" transform="translate(100.72413640141286 434.81681192635295) rotate(0 462.64828804706906 79.04507445811595)"><path d="M32 0 M32 0 C363.77 0.63, 696.38 1.22, 893.3 0 M893.3 0 C916.32 -0.53, 925.93 10.06, 925.3 32 M925.3 32 C923.2 51.9, 923.76 70.23, 925.3 126.09 M925.3 126.09 C925.76 147.26, 914.95 156.25, 893.3 158.09 M893.3 158.09 C563.82 157.28, 232.67 157.25, 32 158.09 M32 158.09 C9.4 157.54, 1.54 146.98, 0 126.09 M0 126.09 C-0.07 106.88, -1.14 89.23, 0 32 M0 32 C0.59 10.07, 10.36 0.41, 32 0" stroke="#2b8a3e" stroke-width="1.5" fill="none" stroke-dasharray="8 9"></path></g><g stroke-linecap="round" transform="translate(821.5801799114317 484.486652771544) rotate(0 80.5 30)"><path d="M13.48 0.71 L153.58 -0.06 L155.99 4.61 L161.75 11.54 L159.16 51.86 L156.75 55.96 L147.3 61.53 L6.81 60.42 L3.29 57.89 L1.43 47.28 L0.7 11.74 L2.17 3.44 L7.57 0.5 L15.85 -1.87" stroke="none" stroke-width="0" fill="#82c91e33"></path><path d="M15 0 M15 0 C48.78 -0.92, 83.2 -0.47, 146 0 M15 0 C42.61 0.61, 70.45 1.95, 146 0 M146 0 C155.65 -1.88, 161.84 3.73, 161 15 M146 0 C155.12 1.61, 159.85 4.76, 161 15 M161 15 C161.95 25.54, 162.66 33.21, 161 45 M161 15 C161.38 23.66, 160.56 33.22, 161 45 M161 45 C159.51 56.89, 155.65 58.06, 146 60 M161 45 C161.29 53.34, 156.61 60.36, 146 60 M146 60 C114.76 57.49, 84.34 57.99, 15 60 M146 60 C97.98 58.72, 49.76 58.15, 15 60 M15 60 C6.03 59.87, 1.6 53.04, 0 45 M15 60 C3.94 57.76, -0.18 54.98, 0 45 M0 45 C0.1 36.5, 1.78 30.17, 0 15 M0 45 C-0.15 32.25, 0.93 20.39, 0 15 M0 15 C-0.71 6.2, 3.67 0.73, 15 0 M0 15 C-1.19 6.73, 3.67 -1.62, 15 0" stroke="#5c940d" stroke-width="1" fill="none"></path></g><g transform="translate(869.7702204998106 502.486652771544) rotate(0 32.309959411621094 12)"><text x="32.309959411621094" y="0" font-family="Virgil, Segoe UI Emoji" font-size="20px" fill="#5c940d" text-anchor="middle" style="white-space: pre;" direction="ltr" dominant-baseline="text-before-edge">/bin/sh</text></g><g stroke-linecap="round" transform="translate(148.09791022152575 231.4705339179793) rotate(0 75.71141204220064 36.14853360578533)"><path d="M19.5 1.5 L134.02 -1.97 L144.64 3.67 L148.45 8.72 L149.79 12.64 L152.73 53.35 L150.72 64.96 L144.33 69.11 L133.04 73.83 L18.25 73.99 L5.68 68.05 L3.67 65.17 L1.88 58.97 L0.86 12.14 L2.71 6.19 L5.91 2.01 L16.5 1.55" stroke="none" stroke-width="0" fill="#ced4da55"></path><path d="M18.07 0 M18.07 0 C45.46 1.35, 74.72 0.63, 133.35 0 M18.07 0 C61.54 0.58, 104.33 -0.05, 133.35 0 M133.35 0 C143.45 0.1, 150.48 5.12, 151.42 18.07 M133.35 0 C145.35 -0.53, 151.94 7.74, 151.42 18.07 M151.42 18.07 C153.05 32.61, 152.18 45.37, 151.42 54.22 M151.42 18.07 C150.9 32.69, 151.16 45.71, 151.42 54.22 M151.42 54.22 C150.5 68.17, 145.67 71.73, 133.35 72.3 M151.42 54.22 C149.49 64.91, 143.83 72.3, 133.35 72.3 M133.35 72.3 C97.39 71.32, 64.94 74.41, 18.07 72.3 M133.35 72.3 C88.85 72.38, 44.6 71.2, 18.07 72.3 M18.07 72.3 C6.78 72.68, -0.53 66.77, 0 54.22 M18.07 72.3 C4.57 73.04, 1.84 64.95, 0 54.22 M0 54.22 C0.57 42.37, 0.97 31.02, 0 18.07 M0 54.22 C-0.26 45.57, -0.63 34.71, 0 18.07 M0 18.07 C0.52 8.01, 7.54 1.47, 18.07 0 M0 18.07 C0.13 6.45, 7.06 1.02, 18.07 0" stroke="#495057" stroke-width="1" fill="none"></path></g><g transform="translate(176.44911833935143 245.8066799335714) rotate(0 50.8392333984375 21.599999999999994)"><text x="0" y="0" font-family="Cascadia, Segoe UI Emoji" font-size="9.650289388638228px" fill="#495057" text-anchor="start" style="white-space: pre;" direction="ltr" dominant-baseline="text-before-edge">auipc   t0,0x0</text><text x="0" y="10.799999999999999" font-family="Cascadia, Segoe UI Emoji" font-size="9.650289388638228px" fill="#495057" text-anchor="start" style="white-space: pre;" direction="ltr" dominant-baseline="text-before-edge">addi    a2,t0,40</text><text x="0" y="21.599999999999998" font-family="Cascadia, Segoe UI Emoji" font-size="9.650289388638228px" fill="#495057" text-anchor="start" style="white-space: pre;" direction="ltr" dominant-baseline="text-before-edge">csrr    a0,mhartid</text><text x="0" y="32.4" font-family="Cascadia, Segoe UI Emoji" font-size="9.650289388638228px" fill="#495057" text-anchor="start" style="white-space: pre;" direction="ltr" dominant-baseline="text-before-edge">ld      a1,32(t0)</text></g><g transform="translate(150.42325742626008 191.34977330913068) rotate(0 87.08990478515625 12)"><text x="0" y="0" font-family="Virgil, Segoe UI Emoji" font-size="20px" fill="#495057" text-anchor="start" style="white-space: pre;" direction="ltr" dominant-baseline="text-before-edge">boot code in ROM</text></g><g stroke-opacity="0.3" fill-opacity="0.3" transform="translate(487.9525137858423 622.2345023830007) rotate(0 88.984375 16.80000000000001)"><text x="0" y="0" font-family="Virgil, Segoe UI Emoji" font-size="28px" fill="#e67700" text-anchor="start" style="white-space: pre;" direction="ltr" dominant-baseline="text-before-edge">@hemashushu</text></g><g stroke-linecap="round" transform="translate(435.6666666666664 231.24272802126052) rotate(0 76.99999999999997 35)"><path d="M16.11 -1.86 L137.1 1.35 L147.39 3.92 L150.78 7.36 L152.53 14.8 L152.51 54.22 L153.08 64.97 L148.78 66.12 L136.64 71.56 L18.72 68.75 L7.59 68.12 L3.93 65.06 L-1.73 58.42 L0.24 15.13 L3.45 8.07 L8.63 2.47 L16.77 1.84" stroke="none" stroke-width="0" fill="#ced4da55"></path><path d="M17.5 0 M17.5 0 C61.82 0.59, 105.78 -2.2, 136.5 0 M17.5 0 C63.27 -0.61, 111.2 -0.1, 136.5 0 M136.5 0 C149.2 -1.57, 155.49 4.88, 154 17.5 M136.5 0 C147.76 0.23, 154.24 3.83, 154 17.5 M154 17.5 C155.12 30.64, 154.81 39.73, 154 52.5 M154 17.5 C154.33 29.49, 153.77 42.41, 154 52.5 M154 52.5 C154.79 62.35, 146.59 68.45, 136.5 70 M154 52.5 C154.6 65.46, 148.38 69.53, 136.5 70 M136.5 70 C104.66 71.01, 76.4 71.56, 17.5 70 M136.5 70 C104.21 69.74, 72.1 69.87, 17.5 70 M17.5 70 C4.15 68.64, 1.21 66.05, 0 52.5 M17.5 70 C6.3 70.95, -0.08 64.52, 0 52.5 M0 52.5 C1.67 44.7, -1.14 38.23, 0 17.5 M0 52.5 C-0.32 40.32, -0.27 29.1, 0 17.5 M0 17.5 C-0.99 4.65, 7.56 -1.93, 17.5 0 M0 17.5 C-0.25 4.18, 6.66 1.16, 17.5 0" stroke="#495057" stroke-width="1" fill="none"></path></g><g transform="translate(471.53669993082656 254.24272802126052) rotate(0 41.129966735839815 12)"><text x="41.129966735839844" y="0" font-family="Virgil, Segoe UI Emoji" font-size="20px" fill="#495057" text-anchor="middle" style="white-space: pre;" direction="ltr" dominant-baseline="text-before-edge">OpenSBI</text></g><g transform="translate(322.64117947678227 10) rotate(0 262.0531005859375 16.8)"><text x="0" y="0" font-family="Virgil, Segoe UI Emoji" font-size="28px" fill="#087f5b" text-anchor="start" style="white-space: pre;" direction="ltr" dominant-baseline="text-before-edge">QEMU System RISC-V - Boot Process</text></g><g transform="translate(453.8888888888886 127.82050579903824) rotate(0 91.16990661621091 12.000000000000007)"><text x="0" y="0" font-family="Virgil, Segoe UI Emoji" font-size="20px" fill="#495057" text-anchor="start" style="white-space: pre;" direction="ltr" dominant-baseline="text-before-edge">CPU Machine Mode</text></g><g transform="translate(486.91009521484375 197.13161691014943) rotate(0 26.059982299804716 12)"><text x="0" y="0" font-family="Virgil, Segoe UI Emoji" font-size="20px" fill="#495057" text-anchor="start" style="white-space: pre;" direction="ltr" dominant-baseline="text-before-edge">BIOS</text></g><g transform="translate(797.1654600744846 126.39354346283098) rotate(0 103.69988250732422 12)"><text x="0" y="0" font-family="Virgil, Segoe UI Emoji" font-size="20px" fill="#c92a2a" text-anchor="start" style="white-space: pre;" direction="ltr" dominant-baseline="text-before-edge">CPU Supervisor Mode</text></g><g transform="translate(853.7693220950405 397.8982599566792) rotate(0 76.8899154663086 12)"><text x="0" y="0" font-family="Virgil, Segoe UI Emoji" font-size="20px" fill="#2b8a3e" text-anchor="start" style="white-space: pre;" direction="ltr" dominant-baseline="text-before-edge">CPU User Mode</text></g><g stroke-linecap="round" transform="translate(620.3345729419198 489.3967554510934) rotate(0 74 28.5)"><path d="M14.52 0.36 L138.81 1.34 L146.19 2.41 L147.11 10.32 L148.38 47.17 L141.85 55.71 L132.31 56.22 L7.14 58.01 L3.54 51.62 L1.35 46 L-1.26 9.58 L0.74 4.57 L7.36 1.68 L14.13 -1.13" stroke="none" stroke-width="0" fill="#82c91e33"></path><path d="M14.25 0 M14.25 0 C48.99 -1.3, 86.64 2.12, 133.75 0 M14.25 0 C52.28 0.28, 90.42 0.34, 133.75 0 M133.75 0 C141.42 1.43, 147.57 5.57, 148 14.25 M133.75 0 C142.97 -2.04, 145.94 5.24, 148 14.25 M148 14.25 C147.99 22.07, 148.13 28.83, 148 42.75 M148 14.25 C148.47 25.36, 148.47 34.57, 148 42.75 M148 42.75 C147.48 50.36, 141.69 56.22, 133.75 57 M148 42.75 C148.28 50.59, 143.71 55.51, 133.75 57 M133.75 57 C84.88 56.19, 40.41 58.68, 14.25 57 M133.75 57 C91.35 56.17, 46.61 57.17, 14.25 57 M14.25 57 C4.78 57.99, -0.68 53.22, 0 42.75 M14.25 57 C6.86 58.91, -0.09 53.08, 0 42.75 M0 42.75 C-0.53 35.22, 1.56 25.55, 0 14.25 M0 42.75 C-0.52 32.29, 0.88 22.59, 0 14.25 M0 14.25 C1.22 4.88, 5.46 -0.09, 14.25 0 M0 14.25 C0.48 5.79, 2.73 -1.04, 14.25 0" stroke="#5c940d" stroke-width="1" fill="none"></path></g><g transform="translate(674.294594914576 505.8967554510934) rotate(0 20.03997802734375 12)"><text x="20.03997802734375" y="0" font-family="Virgil, Segoe UI Emoji" font-size="20px" fill="#5c940d" text-anchor="middle" style="white-space: pre;" direction="ltr" dominant-baseline="text-before-edge">login</text></g><g stroke-linecap="round" transform="translate(384.4000236201371 487.2626478455216) rotate(0 76 28.5)"><path d="M13.34 -0.86 L143.77 -0.31 L147.12 3.99 L150.86 9.78 L150.79 50.18 L147.77 54.91 L139.57 55.28 L6.59 55.58 L3.03 53.35 L1.72 44.56 L1.83 12.62 L1.4 6.75 L5.44 0.64 L14.45 -0.71" stroke="none" stroke-width="0" fill="#82c91e33"></path><path d="M14.25 0 M14.25 0 C54.12 1.26, 93.02 0.31, 137.75 0 M14.25 0 C58.12 0.22, 102.39 -0.7, 137.75 0 M137.75 0 C146.16 1.05, 151.16 3.55, 152 14.25 M137.75 0 C148.44 1.4, 153.18 2.55, 152 14.25 M152 14.25 C152.09 24.27, 153.87 31.64, 152 42.75 M152 14.25 C152.73 19.15, 152.95 25.06, 152 42.75 M152 42.75 C152.96 52.98, 148.31 55.42, 137.75 57 M152 42.75 C154.1 54.52, 147.03 58.17, 137.75 57 M137.75 57 C105.48 55.87, 78.42 57.56, 14.25 57 M137.75 57 C90.35 56.84, 42.48 58.59, 14.25 57 M14.25 57 C5.1 55.01, 0.05 52.03, 0 42.75 M14.25 57 C4.54 55.76, 1.15 52.35, 0 42.75 M0 42.75 C-2.01 36.05, -0.84 28.24, 0 14.25 M0 42.75 C0.21 32.19, -0.38 21.84, 0 14.25 M0 14.25 C1.47 4.7, 6.39 1.75, 14.25 0 M0 14.25 C2.17 2.92, 6.01 1.06, 14.25 0" stroke="#5c940d" stroke-width="1" fill="none"></path></g><g transform="translate(433.9300529170121 503.7626478455216) rotate(0 26.469970703125 12)"><text x="26.469970703125" y="0" font-family="Virgil, Segoe UI Emoji" font-size="20px" fill="#5c940d" text-anchor="middle" style="white-space: pre;" direction="ltr" dominant-baseline="text-before-edge">getty</text></g><g stroke-linecap="round"><g transform="translate(54.70619282057929 130.59828357681613) rotate(0 36.65068074151249 66.01146569332626)"><path d="M-0.47 0.73 C-0.14 8.6, -3.25 29.27, 2.26 46.86 C7.78 64.46, 20.69 92.29, 32.6 106.32 C44.52 120.34, 66.86 126.71, 73.75 131.01 M1.48 0.06 C1.7 8.18, -3.25 30.47, 1.77 48.4 C6.79 66.33, 19.49 93.71, 31.59 107.64 C43.69 121.57, 67.47 127.74, 74.35 131.96" stroke="#495057" stroke-width="1" fill="none"></path></g><g transform="translate(54.70619282057929 130.59828357681613) rotate(0 36.65068074151249 66.01146569332626)"><path d="M52.04 131.68 C58.41 130.11, 66.02 132.58, 73.86 133.39 M49.98 130.12 C59.14 129.94, 69.06 131.59, 74.02 132.62" stroke="#495057" stroke-width="1" fill="none"></path></g><g transform="translate(54.70619282057929 130.59828357681613) rotate(0 36.65068074151249 66.01146569332626)"><path d="M58.65 116.96 C62.84 120.12, 68.32 127.33, 73.86 133.39 M56.59 115.4 C63.4 120.65, 70.89 127.74, 74.02 132.62" stroke="#495057" stroke-width="1" fill="none"></path></g></g><mask></mask><g transform="translate(10 86.55383913237169) rotate(0 58.15625762939453 16.799999999999997)"><text x="0" y="0" font-family="Virgil, Segoe UI Emoji" font-size="28px" fill="#495057" text-anchor="start" style="white-space: pre;" direction="ltr" dominant-baseline="text-before-edge">power on</text></g><g stroke-linecap="round"><g transform="translate(316.11111111111114 266.90939468792726) rotate(0 48.17182727835916 0.34846875551673406)"><path d="M0.43 -1.06 C16.6 -0.57, 81.29 1.42, 97.15 1.76 M-0.81 0.99 C15.23 1.24, 80 -0.23, 96.46 -0.02" stroke="#495057" stroke-width="1" fill="none"></path></g><g transform="translate(316.11111111111114 266.90939468792726) rotate(0 48.17182727835916 0.34846875551673406)"><path d="M66.57 11.25 C78.26 5.32, 85.69 4.42, 97.69 0.12 M68.28 9.86 C76.07 6.76, 83.88 4.97, 96.03 0" stroke="#495057" stroke-width="1" fill="none"></path></g><g transform="translate(316.11111111111114 266.90939468792726) rotate(0 48.17182727835916 0.34846875551673406)"><path d="M66.43 -9.27 C77.96 -8.83, 85.44 -3.36, 97.69 0.12 M68.14 -10.66 C76.02 -8.35, 83.87 -4.73, 96.03 0" stroke="#495057" stroke-width="1" fill="none"></path></g></g><mask></mask><g stroke-linecap="round"><g transform="translate(856.8373350619422 312.5199817441662) rotate(0 -305.9741299502602 79.77517817550267)"><path d="M0.53 -0.2 C-3.34 6.47, -1.08 27.3, -23.78 40.37 C-46.49 53.43, -59.38 70.15, -135.7 78.19 C-212.02 86.24, -406.83 83.07, -481.7 88.62 C-556.57 94.18, -563.41 99.46, -584.93 111.51 C-606.46 123.56, -606.34 152.96, -610.84 160.91 M-0.64 -1.36 C-4.59 4.96, -1.95 25.69, -24.51 38.66 C-47.07 51.63, -59.8 67.91, -136 76.44 C-212.2 84.98, -406.71 83.96, -481.71 89.87 C-556.71 95.79, -564.19 100.22, -585.98 111.94 C-607.78 123.67, -608.27 152.06, -612.48 160.24" stroke="#087f5b" stroke-width="1" fill="none"></path></g><g transform="translate(856.8373350619422 312.5199817441662) rotate(0 -305.9741299502602 79.77517817550267)"><path d="M-614.59 133.3 C-612.42 141.12, -611.4 145.84, -612.02 161.57 M-614.21 131.76 C-614 140.09, -612.88 149.42, -613.13 160.78" stroke="#087f5b" stroke-width="1" fill="none"></path></g><g transform="translate(856.8373350619422 312.5199817441662) rotate(0 -305.9741299502602 79.77517817550267)"><path d="M-596.41 138.62 C-598.87 145.17, -602.48 148.54, -612.02 161.57 M-596.03 137.09 C-601.45 143.89, -605.9 151.59, -613.13 160.78" stroke="#087f5b" stroke-width="1" fill="none"></path></g></g><mask></mask><g stroke-linecap="round"><g transform="translate(323.8006159324228 517.7837807976119) rotate(0 25.481313025575872 0.10557874431862047)"><path d="M-0.18 -0.94 C8.71 -1.08, 43.96 -0.6, 52.69 -0.56 M-1.73 1.18 C7.13 1.17, 43.28 0.83, 52.17 0.67" stroke="#2b8a3e" stroke-width="1" fill="none"></path></g><g transform="translate(323.8006159324228 517.7837807976119) rotate(0 25.481313025575872 0.10557874431862047)"><path d="M26.34 11.21 C32.88 8.17, 38.61 6.46, 50.92 1.45 M27.17 9.75 C36.4 6.25, 45.83 3, 51.89 0.52" stroke="#2b8a3e" stroke-width="1" fill="none"></path></g><g transform="translate(323.8006159324228 517.7837807976119) rotate(0 25.481313025575872 0.10557874431862047)"><path d="M26.11 -6.53 C32.75 -5.2, 38.54 -2.53, 50.92 1.45 M26.95 -7.99 C36.43 -4.64, 45.95 -1.03, 51.89 0.52" stroke="#2b8a3e" stroke-width="1" fill="none"></path></g></g><mask></mask><g stroke-linecap="round"><g transform="translate(547.5005244372023 518.5948913847456) rotate(0 34.066343722697866 0.3635660520107251)"><path d="M0.65 0.71 C11.63 0.82, 55.15 1.33, 66.29 1.39 M-0.47 0.03 C10.86 -0.28, 57.37 -0.94, 68.6 -0.54" stroke="#2b8a3e" stroke-width="1" fill="none"></path></g><g transform="translate(547.5005244372023 518.5948913847456) rotate(0 34.066343722697866 0.3635660520107251)"><path d="M41.52 8.28 C50.31 6.73, 59.23 2.88, 70.44 -1.13 M39.64 8.57 C47.02 6.86, 52.62 4.39, 68.93 -1.3" stroke="#2b8a3e" stroke-width="1" fill="none"></path></g><g transform="translate(547.5005244372023 518.5948913847456) rotate(0 34.066343722697866 0.3635660520107251)"><path d="M41.65 -12.24 C50.51 -6.95, 59.39 -3.97, 70.44 -1.13 M39.77 -11.95 C47.13 -8.87, 52.71 -6.56, 68.93 -1.3" stroke="#2b8a3e" stroke-width="1" fill="none"></path></g></g><mask></mask><g stroke-linecap="round"><g transform="translate(607.6807544093222 263.695281238576) rotate(0 77.24156183091003 0.8636284825935405)"><path d="M1.16 0.91 C26.84 1.16, 128.65 0.19, 154.17 0.3 M0.31 0.34 C25.88 0.82, 127.96 1.56, 153.56 1.42" stroke="#087f5b" stroke-width="1" fill="none"></path></g><g transform="translate(607.6807544093222 263.695281238576) rotate(0 77.24156183091003 0.8636284825935405)"><path d="M126.86 12.68 C132.83 9.4, 143.71 6.73, 152.84 1.67 M124.88 11.42 C131.69 8.8, 138.56 6.48, 153.6 2.03" stroke="#087f5b" stroke-width="1" fill="none"></path></g><g transform="translate(607.6807544093222 263.695281238576) rotate(0 77.24156183091003 0.8636284825935405)"><path d="M126.9 -7.84 C132.65 -4.77, 143.52 -1.09, 152.84 1.67 M124.92 -9.1 C131.7 -6.97, 138.56 -4.53, 153.6 2.03" stroke="#087f5b" stroke-width="1" fill="none"></path></g></g><mask></mask><g stroke-linecap="round"><g transform="translate(773.2258982565493 518.3460616568782) rotate(0 22.49809574769705 -1.022904888039477)"><path d="M0.31 -0.24 C7.73 -0.29, 36.32 0.05, 43.59 0.05 M-0.99 -1.42 C6.92 -1.87, 38.66 -2.35, 45.99 -1.94" stroke="#2b8a3e" stroke-width="1" fill="none"></path></g><g transform="translate(773.2258982565493 518.3460616568782) rotate(0 22.49809574769705 -1.022904888039477)"><path d="M24.73 4.36 C30.1 3.22, 34.18 2.41, 47.97 -2.88 M24.57 5.6 C30.54 2.82, 35.44 2.95, 45.7 -2.3" stroke="#2b8a3e" stroke-width="1" fill="none"></path></g><g transform="translate(773.2258982565493 518.3460616568782) rotate(0 22.49809574769705 -1.022904888039477)"><path d="M24.93 -10.75 C30.3 -8.58, 34.33 -6.09, 47.97 -2.88 M24.77 -9.51 C30.66 -8.8, 35.52 -5.17, 45.7 -2.3" stroke="#2b8a3e" stroke-width="1" fill="none"></path></g></g><mask></mask></svg>